<svg id="Capa_1" enable-background="new 0 0 512 512" height="512" viewBox="0 0 512 512" width="512" xmlns="http://www.w3.org/2000/svg"><g><g><path d="m434.435 367.96-178.435-20.201-178.435 20.201c-31.383 3.553-56.481 27.715-61.223 58.94l-12.403 81.656c-.275 1.812 1.128 3.444 2.961 3.444h84.142l164.318-8.994 165.808 8.994h83.932c1.833 0 3.236-1.632 2.961-3.444l-12.402-81.656c-4.743-31.225-29.841-55.387-61.224-58.94z" fill="#f9f6f6"/></g><g><path d="m270.239 422.416h-28.478l-7.853 89.584h44.184z" fill="#5766cb"/></g><g><path d="m270.239 422.416h-21.094l7.853 89.584h21.094z" fill="#1f3594"/></g><g><path d="m456.185 416.926 14.44 95.074h34.475c1.833 0 3.236-1.632 2.961-3.444l-12.402-81.656c-4.743-31.225-29.841-55.387-61.223-58.939l-7.326-.829c15.285 11.992 26.002 29.563 29.075 49.794z" fill="#dddaec"/></g><g><path d="m352.765 358.691-88.26 137.426c-3.929 6.117-12.87 6.117-16.799 0l-88.26-137.426-68.403 7.744v145.565h330.126v-145.565z" fill="#707dd3"/></g><g><path d="m391.536 363.08v148.92h29.632v-145.565z" fill="#5766cb"/></g><g><path d="m182.294 261.646h147.412v130.753h-147.412z" fill="#ffccbf"/></g><g><path d="m299.922 261.646h29.784v130.753h-29.784z" fill="#ffa78e"/></g><g><path d="m346.845 236.831h-7.897v-59.905c0-9.228 7.481-16.71 16.71-16.71h9.312c12.116 0 21.938 9.822 21.938 21.938v14.614c0 22.126-17.937 40.063-40.063 40.063z" fill="#ffa78e"/></g><path d="m364.971 160.216h-9.312c-2.203 0-4.302.437-6.228 1.212v-64.287h-186.861v64.289c-1.927-.775-4.026-1.213-6.23-1.213h-9.312c-12.116 0-21.938 9.822-21.938 21.938v14.614c0 21.268 16.576 38.657 37.513 39.973.69 28.051 15.207 54.008 38.87 69.254l29.923 19.28c14.983 9.654 34.226 9.654 49.209 0l19.318-12.447 16.687-17.516s7.67.237 13.097-6.267c12.135-14.54 19.214-32.923 19.69-52.304 20.936-1.317 37.511-18.705 37.511-39.973v-14.614c0-12.117-9.822-21.939-21.937-21.939z" fill="#ffccbf"/><g><path d="m191.758 115.488v18.434c0 14.808-5.219 29.142-14.74 40.484l-15.325 18.255c-.932 1.111-2.7.888-3.329-.419l-9.814-20.421c-3.671-7.638-5.577-16.005-5.577-24.479v-14.863l3-16.991z" fill="#407093"/></g><g><path d="m171.419 115.487v13.575c0 14.808-5.219 29.143-14.74 40.484l-5.864 6.985 7.55 15.71c.628 1.307 2.396 1.53 3.329.419l15.325-18.255c9.521-11.341 14.74-25.676 14.74-40.484v-18.434z" fill="#365e7d"/></g><g><path d="m226.931 376.71 12.179 46.769c.787 3.021 3.224 5.318 6.257 6.105.742.193 12.312-1.767 12.312-1.767s11.323 1.11 12.944-.466c1.077-1.048 1.876-2.37 2.267-3.872l12.179-46.769z" fill="#707dd3"/></g><g><path d="m263.832 376.528-12.221 46.93c-.789 3.031-3.236 5.333-6.279 6.123.745.193 1.525.299 2.326.299h16.685c4.073 0 7.623-2.649 8.605-6.422l12.221-46.93z" fill="#5766cb"/></g><g><g><path d="m175.169 337.298-30.654 19.649c-4.352 2.789-5.249 8.775-1.906 12.717l62.281 73.45c2.19 2.582 6.372 1.698 7.329-1.549l3.563-12.09c4.572-15.514 13.534-29.374 25.805-39.91l14.064-12.076c.536-.46.439-1.316-.187-1.644l-74.064-38.819c-1.975-1.035-4.353-.931-6.231.272z" fill="#f9f6f6"/></g><g><path d="m220.913 357.735-6.002 5.154c-12.271 10.536-21.232 24.396-25.804 39.91l-3.563 12.09c-.378 1.283-1.262 2.19-2.325 2.667l21.672 25.559c2.19 2.582 6.372 1.698 7.329-1.549l3.563-12.09c4.572-15.514 13.534-29.374 25.805-39.91l14.064-12.076c.536-.46.439-1.316-.187-1.644z" fill="#dddaec"/></g></g><g><g><path d="m336.831 337.298 30.654 19.649c4.352 2.789 5.249 8.775 1.906 12.717l-62.281 73.45c-2.19 2.582-6.372 1.698-7.329-1.549l-3.563-12.09c-4.572-15.514-13.534-29.374-25.805-39.91l-14.064-12.076c-.536-.46-.439-1.316.187-1.644l74.064-38.817c1.975-1.037 4.353-.933 6.231.27z" fill="#f9f6f6"/></g><g><path d="m367.485 356.947-30.654-19.649c-1.877-1.203-4.256-1.307-6.231-.272l-30.022 15.735 17.432 11.174c4.352 2.789 5.249 8.775 1.906 12.717l-30.645 36.141c2.896 5.269 5.231 10.859 6.947 16.682l3.563 12.09c.957 3.248 5.139 4.132 7.329 1.549l62.281-73.45c3.343-3.942 2.446-9.927-1.906-12.717z" fill="#dddaec"/></g></g><g><path d="m148.054 478.31h-71.068c-3.866 0-7-3.134-7-7v-24.744c0-3.866 3.134-7 7-7h71.068c3.866 0 7 3.134 7 7v24.744c0 3.866-3.134 7-7 7z" fill="#ffe07d"/></g><g><path d="m148.066 439.566h-9.217v15.552c0 3.859-3.128 6.988-6.988 6.988h-61.875v9.217c0 3.859 3.128 6.988 6.988 6.988h71.093c3.859 0 6.988-3.129 6.988-6.988v-24.769c-.001-3.86-3.13-6.988-6.989-6.988z" fill="#ffd064"/></g><g><circle cx="376.528" cy="433.249" fill="#e28086" r="15.161"/></g><g><path d="m381.457 418.924c.533 1.547.836 3.201.836 4.929 0 8.373-6.788 15.161-15.161 15.161-1.728 0-3.382-.303-4.929-.835 2.047 5.95 7.68 10.232 14.325 10.232 8.373 0 15.161-6.788 15.161-15.161 0-6.646-4.282-12.279-10.232-14.326z" fill="#dd636e"/></g><g><path d="m341.804 490.081-13.997-13.997c-1.562-1.562-1.562-4.095 0-5.657l13.997-13.997c1.562-1.562 4.095-1.562 5.657 0l13.997 13.997c1.562 1.562 1.562 4.095 0 5.657l-13.997 13.997c-1.562 1.563-4.095 1.563-5.657 0z" fill="#e4f6ff"/></g><g><path d="m361.463 470.433-14.007-14.007c-1.559-1.559-4.087-1.559-5.647 0l-4.64 4.64 9.367 9.367c1.559 1.559 1.559 4.087 0 5.647l-9.367 9.367 4.64 4.64c1.559 1.559 4.087 1.559 5.647 0l14.007-14.007c1.559-1.56 1.559-4.088 0-5.647z" fill="#bed8fb"/></g><g><path d="m227.454 250.868c-2.823 0-4.802 2.869-3.711 5.473 5.282 12.608 17.731 21.467 32.257 21.467s26.975-8.859 32.257-21.467c1.091-2.604-.888-5.473-3.711-5.473z" fill="#f2fbff"/></g><path d="m364.971 160.216h-9.312c-2.203 0-4.302.437-6.228 1.212v-64.287h-40.763v137.51c0 28.848-14.653 55.721-38.903 71.345l-29.923 19.28c-1.374.885-2.784 1.687-4.223 2.41 14.254 7.161 31.377 6.358 44.986-2.41l29.923-19.28c23.663-15.247 38.18-41.204 38.87-69.254 20.936-1.317 37.511-18.705 37.511-39.973v-14.614c-.001-12.117-9.823-21.939-21.938-21.939z" fill="#ffa78e"/><g><path d="m320.24 115.488v18.434c0 14.808 5.219 29.142 14.74 40.484l15.325 18.255c.932 1.111 2.7.888 3.329-.419l9.814-20.421c3.671-7.638 5.577-16.005 5.577-24.479v-14.863l-3-16.991z" fill="#407093"/></g><g><path d="m349.093 115.487v31.854c0 8.475-1.906 16.841-5.577 24.479l-3.897 8.11 10.687 12.73c.932 1.111 2.701.888 3.329-.419l9.814-20.421c3.671-7.638 5.577-16.005 5.577-24.479v-14.863l-3-16.991z" fill="#365e7d"/></g><g><g><circle cx="210.463" cy="193.374" fill="#4a80aa" r="10.727"/></g><g><circle cx="301.537" cy="193.374" fill="#4a80aa" r="10.727"/></g></g><g><path d="m393.463 25.828c0-5.1-3.405-9.564-8.323-10.917-17.523-4.82-62.201-14.911-129.14-14.911s-111.617 10.091-129.14 14.911c-4.918 1.353-8.323 5.817-8.323 10.917v5.028c0 8.261 2.783 16.281 7.899 22.767l2.703 3.427c8.961 11.359 13.835 25.406 13.835 39.874v17.486l3 7.819h220.049l3-7.819v-17.486c0-14.468 4.874-28.515 13.835-39.874l2.703-3.427c5.117-6.486 7.899-14.506 7.899-22.767v-5.028z" fill="#707dd3"/></g><g><path d="m385.14 14.911c-5.579-1.535-13.923-3.604-24.851-5.712v3.457c0 8.261-2.783 16.281-7.899 22.767l-2.703 3.427c-8.961 11.359-13.835 25.405-13.835 39.874v17.486 7.819 10.25c0 3.088-1.306 5.937-3.457 7.95h33.631l3-7.819v-17.486c0-14.468 4.874-28.515 13.835-39.874l2.703-3.427c5.117-6.486 7.899-14.506 7.899-22.767v-5.028c0-5.1-3.405-9.564-8.323-10.917z" fill="#5766cb"/></g><g><path d="m369.025 114.41h-226.05v18.069c0 4.801 3.144 9.036 7.739 10.426 23.748 7.182 48.423 10.831 73.233 10.831h64.106c24.81 0 49.485-3.649 73.233-10.831 4.596-1.39 7.739-5.625 7.739-10.426z" fill="#f9f6f6"/></g><g><path d="m335.846 114.41c-.057 4.746-3.18 8.917-7.734 10.294-23.748 7.182-48.423 10.831-73.233 10.831h-64.106c-16.061 0-32.065-1.539-47.798-4.566v1.51c0 4.801 3.144 9.036 7.739 10.426 23.748 7.182 48.423 10.831 73.233 10.831h64.106c24.81 0 49.485-3.649 73.233-10.831 4.595-1.39 7.739-5.625 7.739-10.426v-18.069z" fill="#dddaec"/></g><g><path d="m379.748 93.054h-246.498c-4.135 0-7.487-3.352-7.487-7.487s3.352-7.487 7.487-7.487h246.498c4.135 0 7.487 3.352 7.487 7.487s-3.352 7.487-7.487 7.487z" fill="#ffc250"/></g><g><ellipse cx="256" cy="40.65" fill="#ffe07d" rx="37.481" ry="15.196"/></g><g><path d="m279.621 28.855c-2.191 7.546-18.01 13.401-37.211 13.401-8.956 0-17.174-1.275-23.621-3.4-.171.589-.269 1.187-.269 1.795 0 8.392 16.781 15.196 37.481 15.196s37.481-6.803 37.481-15.196c-.001-4.762-5.407-9.01-13.861-11.796z" fill="#ffd064"/></g><g><circle cx="177.962" cy="85.567" fill="#ffe07d" r="14.377"/></g><g><circle cx="334.038" cy="85.567" fill="#ffe07d" r="14.377"/></g><g><path d="m182.79 72.039c.54 1.511.849 3.132.849 4.828 0 7.94-6.437 14.377-14.377 14.377-1.697 0-3.317-.309-4.828-.849 1.986 5.561 7.285 9.549 13.528 9.549 7.94 0 14.377-6.437 14.377-14.377 0-6.243-3.988-11.542-9.549-13.528z" fill="#ffd064"/></g><g><path d="m338.867 72.039c.54 1.511.849 3.132.849 4.828 0 7.94-6.437 14.377-14.377 14.377-1.697 0-3.317-.309-4.828-.849 1.986 5.561 7.285 9.549 13.528 9.549 7.94 0 14.377-6.437 14.377-14.377-.001-6.243-3.988-11.542-9.549-13.528z" fill="#ffd064"/></g></g></svg>