<svg width="120" height="116" viewBox="0 0 120 116" fill="none" xmlns="http://www.w3.org/2000/svg">
<path d="M106.658 41.2688L119.313 28.6134C119.835 28.0925 120.081 27.3555 119.976 26.6258C119.873 25.8962 119.431 25.2571 118.784 24.9019L103.57 16.5477C102.436 15.9251 101.011 16.3399 100.388 17.4742C99.7651 18.6095 100.179 20.034 101.314 20.6566L113.791 27.5075L102.93 38.3675L63.8672 16.9176L74.7272 6.05759L85.7053 12.0863C86.8397 12.7089 88.2651 12.2951 88.8877 11.1598C89.5112 10.0255 89.0964 8.60001 87.9612 7.97745L75.4413 1.10184C74.5276 0.600132 73.3924 0.762181 72.6563 1.49918L60.0001 14.1554L47.3438 1.49918C46.6068 0.762181 45.4716 0.601048 44.5588 1.10184L1.21587 24.9019C0.569508 25.2571 0.127308 25.8952 0.0238536 26.6258C-0.0805164 27.3555 0.164845 28.0925 0.686696 28.6134L13.342 41.2688L0.686696 53.9232C0.164845 54.445 -0.0805164 55.1811 0.0238536 55.9117C0.127308 56.6414 0.569508 57.2804 1.21587 57.6347L14.3134 64.8271V88.867C14.3134 89.7231 14.7794 90.5104 15.5292 90.9224L58.8721 114.722C59.2237 114.915 59.6119 115.011 60.0001 115.011C60.3882 115.011 60.7764 114.915 61.128 114.722L104.471 90.9224C105.221 90.5104 105.687 89.7231 105.687 88.867V64.8271L118.784 57.6357C119.431 57.2804 119.873 56.6414 119.976 55.9117C120.081 55.182 119.835 54.445 119.313 53.9241L106.658 41.2688ZM60.0001 62.3937L21.5268 41.2679L60.0001 20.1412L98.4733 41.2679L60.0001 62.3937ZM45.2738 6.05759L56.1329 16.9176L17.0701 38.3675L6.21007 27.5075L45.2738 6.05759ZM17.0719 44.1692L56.1347 65.6191L45.2738 76.48L6.21007 55.0301L17.0719 44.1692ZM100.999 87.4809L62.3438 108.707V84.7481C62.3438 83.4535 61.2946 82.4043 60.0001 82.4043C58.7055 82.4043 57.6563 83.4535 57.6563 84.7481V108.707L19.0009 87.4809V67.4016L44.5588 81.4357C44.9131 81.6298 45.3013 81.725 45.6858 81.725C46.2928 81.725 46.8934 81.4888 47.3438 81.0384L60.0001 68.3821L72.6563 81.0384C73.1067 81.4897 73.7073 81.725 74.3143 81.725C74.6989 81.725 75.087 81.6298 75.4413 81.4357L100.999 67.4016V87.4809ZM74.7272 76.48L63.8663 65.6181L102.929 44.1692L113.791 55.0292L74.7272 76.48Z" fill="#20AE6B"/>
</svg>
