<svg width="2093" height="2093" viewBox="0 0 2093 2093" fill="none" xmlns="http://www.w3.org/2000/svg">
<rect y="503.246" width="1667.24" height="1667.24" rx="523.132" transform="rotate(-17.536 0 503.246)" fill="url(#paint0_linear)"/>
<path d="M777.166 1300.42C830.084 1446.57 980.299 1499.52 1165.13 1441.12C1359.43 1379.72 1451.65 1245.27 1403.44 1092.72C1365.62 973.03 1275.3 927.481 1100.4 941.725L1001.3 949.772C895.369 957.527 844.877 939.193 827.989 885.748C806.879 818.941 854.045 755.053 944.79 726.378C1036.65 697.352 1113.81 722.567 1144.24 795.613L1281.19 752.337C1233.17 611.986 1086 553.173 908.96 609.115C734.151 664.353 640.436 799.896 685.471 942.416C721.71 1057.1 814.374 1106.19 973.193 1093.36L1085.04 1084.96C1193.93 1076.88 1245.68 1097.27 1263.97 1155.17C1285.09 1221.97 1232.85 1291.14 1135.98 1321.75C1038 1352.71 948.65 1327.67 916.346 1256.44L777.166 1300.42Z" fill="white"/>
<defs>
<linearGradient id="paint0_linear" x1="237.117" y1="2041.57" x2="1420.73" y2="652.133" gradientUnits="userSpaceOnUse">
<stop stop-color="#40A187"/>
<stop offset="1" stop-color="#40A187"/>
</linearGradient>
</defs>
</svg>
