<svg id="Layer_1" data-name="Layer 1"
    xmlns="http://www.w3.org/2000/svg"
    xmlns:xlink="http://www.w3.org/1999/xlink" viewBox="0 0 348 12.3">
    <defs>
        <style>.cls-1{fill:none;}.cls-2{clip-path:url(#clip-path);fill: #fff;}.cls-3{clip-path:url(#clip-path-2);}.cls-4{fill:#fff;}</style>
        <clipPath id="clip-path">
            <rect class="cls-1" width="348" height="12"/>
        </clipPath>
        <clipPath id="clip-path-2">
            <rect class="cls-1" x="4" y="-22" width="348" height="61.3"/>
        </clipPath>
    </defs>
    <title>wavy</title>
    <g class="cls-2">
        <g class="cls-3">
            <path id="b" d="M4,245h.5c9.7,0,17.5-8.3,17.5-18.5S14.2,208,4.5,208H4V9.6A6.75,6.75,0,0,0,11,3h4a4.83,4.83,0,0,0,5,4.7A4.83,4.83,0,0,0,25,3h4a4.83,4.83,0,0,0,5,4.7A4.83,4.83,0,0,0,39,3h4A5,5,0,0,0,53,3h4A5,5,0,0,0,67,3h4A5,5,0,0,0,81,3h4A5,5,0,0,0,95,3h4a5,5,0,0,0,10,0h4a5,5,0,0,0,10,0h4a5,5,0,0,0,10,0h4a5,5,0,0,0,10,0h4a5,5,0,0,0,10,0h4a5,5,0,0,0,10,0h4a5,5,0,0,0,10,0h4a5,5,0,0,0,10,0h4a5,5,0,0,0,10,0h4a5,5,0,0,0,10,0h4a5,5,0,0,0,10,0h4a5,5,0,0,0,10,0h4a5,5,0,0,0,10,0h4a5,5,0,0,0,10,0h4a5,5,0,0,0,10,0h4a5,5,0,0,0,10,0h4a5,5,0,0,0,10,0h4a6.82,6.82,0,0,0,7,6.6V208c-9.4.3-17,8.5-17,18.5s7.6,18.2,17,18.5V418a6.74,6.74,0,0,0-7,6.5v.5h-4v-.5a4.75,4.75,0,0,0-5-4.6,4.81,4.81,0,0,0-5,4.6v.5h-4v-.5a4.75,4.75,0,0,0-5-4.6,4.81,4.81,0,0,0-5,4.6v.5h-4v-.5a4.75,4.75,0,0,0-5-4.6,4.81,4.81,0,0,0-5,4.6v.5h-4v-.5a4.75,4.75,0,0,0-5-4.6,4.81,4.81,0,0,0-5,4.6v.5h-4v-.5a4.75,4.75,0,0,0-5-4.6,4.81,4.81,0,0,0-5,4.6v.5h-4.1v-.5a4.75,4.75,0,0,0-5-4.6,4.81,4.81,0,0,0-5,4.6v.5h-4.1v-.5a4.75,4.75,0,0,0-5-4.6,4.81,4.81,0,0,0-5,4.6v.5h-4.1v-.5a4.75,4.75,0,0,0-5-4.6,4.81,4.81,0,0,0-5,4.6v.5h-4.1v-.5a4.75,4.75,0,0,0-5-4.6,4.81,4.81,0,0,0-5,4.6v.5h-4.1v-.5a4.75,4.75,0,0,0-5-4.6,4.81,4.81,0,0,0-5,4.6v.5h-4.1v-.5a4.75,4.75,0,0,0-5-4.6,4.81,4.81,0,0,0-5,4.6v.5h-4.1v-.5a4.75,4.75,0,0,0-5-4.6,4.81,4.81,0,0,0-5,4.6v.5h-4.1v-.5a4.75,4.75,0,0,0-5-4.6,4.81,4.81,0,0,0-5,4.6v.5h-4.1v-.5a4.75,4.75,0,0,0-5-4.6,4.81,4.81,0,0,0-5,4.6v.5H136v-.5a4.75,4.75,0,0,0-5-4.6,4.81,4.81,0,0,0-5,4.6v.5h-4.1v-.5a4.75,4.75,0,0,0-5-4.6,4.81,4.81,0,0,0-5,4.6v.5h-4.1v-.5a4.75,4.75,0,0,0-5-4.6,4.81,4.81,0,0,0-5,4.6v.5H93.7v-.5a4.75,4.75,0,0,0-5-4.6,4.81,4.81,0,0,0-5,4.6v.5H79.6v-.5a4.75,4.75,0,0,0-5-4.6,4.81,4.81,0,0,0-5,4.6v.5H65.5v-.5a4.75,4.75,0,0,0-5-4.6,4.81,4.81,0,0,0-5,4.6v.5H51.4v-.5a4.75,4.75,0,0,0-5-4.6,4.81,4.81,0,0,0-5,4.6v.5H37.3v-.5a4.75,4.75,0,0,0-5-4.6,4.81,4.81,0,0,0-5,4.6v.5H23.2v-.5a4.75,4.75,0,0,0-5-4.6,4.81,4.81,0,0,0-5,4.6v.5h-4v-.5a6.74,6.74,0,0,0-7-6.5L4,245Z"/>
            <path id="b-2" data-name="b" class="cls-4" d="M4,245h.5c9.7,0,17.5-8.3,17.5-18.5S14.2,208,4.5,208H4V9.6A6.75,6.75,0,0,0,11,3h4a4.83,4.83,0,0,0,5,4.7A4.83,4.83,0,0,0,25,3h4a4.83,4.83,0,0,0,5,4.7A4.83,4.83,0,0,0,39,3h4A5,5,0,0,0,53,3h4A5,5,0,0,0,67,3h4A5,5,0,0,0,81,3h4A5,5,0,0,0,95,3h4a5,5,0,0,0,10,0h4a5,5,0,0,0,10,0h4a5,5,0,0,0,10,0h4a5,5,0,0,0,10,0h4a5,5,0,0,0,10,0h4a5,5,0,0,0,10,0h4a5,5,0,0,0,10,0h4a5,5,0,0,0,10,0h4a5,5,0,0,0,10,0h4a5,5,0,0,0,10,0h4a5,5,0,0,0,10,0h4a5,5,0,0,0,10,0h4a5,5,0,0,0,10,0h4a5,5,0,0,0,10,0h4a5,5,0,0,0,10,0h4a5,5,0,0,0,10,0h4a5,5,0,0,0,10,0h4a6.82,6.82,0,0,0,7,6.6V208c-9.4.3-17,8.5-17,18.5s7.6,18.2,17,18.5V418a6.74,6.74,0,0,0-7,6.5v.5h-4v-.5a4.75,4.75,0,0,0-5-4.6,4.81,4.81,0,0,0-5,4.6v.5h-4v-.5a4.75,4.75,0,0,0-5-4.6,4.81,4.81,0,0,0-5,4.6v.5h-4v-.5a4.75,4.75,0,0,0-5-4.6,4.81,4.81,0,0,0-5,4.6v.5h-4v-.5a4.75,4.75,0,0,0-5-4.6,4.81,4.81,0,0,0-5,4.6v.5h-4v-.5a4.75,4.75,0,0,0-5-4.6,4.81,4.81,0,0,0-5,4.6v.5h-4.1v-.5a4.75,4.75,0,0,0-5-4.6,4.81,4.81,0,0,0-5,4.6v.5h-4.1v-.5a4.75,4.75,0,0,0-5-4.6,4.81,4.81,0,0,0-5,4.6v.5h-4.1v-.5a4.75,4.75,0,0,0-5-4.6,4.81,4.81,0,0,0-5,4.6v.5h-4.1v-.5a4.75,4.75,0,0,0-5-4.6,4.81,4.81,0,0,0-5,4.6v.5h-4.1v-.5a4.75,4.75,0,0,0-5-4.6,4.81,4.81,0,0,0-5,4.6v.5h-4.1v-.5a4.75,4.75,0,0,0-5-4.6,4.81,4.81,0,0,0-5,4.6v.5h-4.1v-.5a4.75,4.75,0,0,0-5-4.6,4.81,4.81,0,0,0-5,4.6v.5h-4.1v-.5a4.75,4.75,0,0,0-5-4.6,4.81,4.81,0,0,0-5,4.6v.5h-4.1v-.5a4.75,4.75,0,0,0-5-4.6,4.81,4.81,0,0,0-5,4.6v.5H136v-.5a4.75,4.75,0,0,0-5-4.6,4.81,4.81,0,0,0-5,4.6v.5h-4.1v-.5a4.75,4.75,0,0,0-5-4.6,4.81,4.81,0,0,0-5,4.6v.5h-4.1v-.5a4.75,4.75,0,0,0-5-4.6,4.81,4.81,0,0,0-5,4.6v.5H93.7v-.5a4.75,4.75,0,0,0-5-4.6,4.81,4.81,0,0,0-5,4.6v.5H79.6v-.5a4.75,4.75,0,0,0-5-4.6,4.81,4.81,0,0,0-5,4.6v.5H65.5v-.5a4.75,4.75,0,0,0-5-4.6,4.81,4.81,0,0,0-5,4.6v.5H51.4v-.5a4.75,4.75,0,0,0-5-4.6,4.81,4.81,0,0,0-5,4.6v.5H37.3v-.5a4.75,4.75,0,0,0-5-4.6,4.81,4.81,0,0,0-5,4.6v.5H23.2v-.5a4.75,4.75,0,0,0-5-4.6,4.81,4.81,0,0,0-5,4.6v.5h-4v-.5a6.74,6.74,0,0,0-7-6.5L4,245Z"/>
        </g>
    </g>
    <script xmlns="">
  {
    const open = XMLHttpRequest.prototype.open;
    XMLHttpRequest.prototype.open = function (method, url) {
      open.apply(this, arguments);
      this.addEventListener('readystatechange', function _() {
        if(this.readyState == this.HEADERS_RECEIVED) {
          const contentType = this.getResponseHeader('Content-Type') || '';
          if (contentType.startsWith('video/') || contentType.startsWith('audio/')) {
            window.postMessage({
              source: 'xmlhttprequest-open',
              url,
              mime: contentType,
              method,
              contentType
            }, '*');
          }
          this.removeEventListener('readystatechange', _);
        }
      })
    }
  }
    </script>
</svg>